G04 #@! TF.GenerationSoftware,KiCad,Pcbnew,(5.1.6)-1*
G04 #@! TF.CreationDate,2020-11-23T09:35:25-05:00*
G04 #@! TF.ProjectId,RPi_Zero_pHat_Template,5250695f-5a65-4726-9f5f-704861745f54,rev?*
G04 #@! TF.SameCoordinates,Original*
G04 #@! TF.FileFunction,Copper,L2,Bot*
G04 #@! TF.FilePolarity,Positive*
%FSLAX46Y46*%
G04 Gerber Fmt 4.6, Leading zero omitted, Abs format (unit mm)*
G04 Created by KiCad (PCBNEW (5.1.6)-1) date 2020-11-23 09:35:25*
%MOMM*%
%LPD*%
G01*
G04 APERTURE LIST*
G04 #@! TA.AperFunction,Profile*
%ADD10C,0.100000*%
G04 #@! TD*
G04 #@! TA.AperFunction,ComponentPad*
%ADD11O,1.600000X2.400000*%
G04 #@! TD*
G04 #@! TA.AperFunction,ComponentPad*
%ADD12R,1.600000X2.400000*%
G04 #@! TD*
G04 #@! TA.AperFunction,ComponentPad*
%ADD13O,1.700000X1.700000*%
G04 #@! TD*
G04 #@! TA.AperFunction,ComponentPad*
%ADD14R,1.700000X1.700000*%
G04 #@! TD*
G04 #@! TA.AperFunction,ComponentPad*
%ADD15R,1.520000X1.520000*%
G04 #@! TD*
G04 #@! TA.AperFunction,ComponentPad*
%ADD16C,1.520000*%
G04 #@! TD*
G04 #@! TA.AperFunction,ComponentPad*
%ADD17O,1.400000X1.400000*%
G04 #@! TD*
G04 #@! TA.AperFunction,ComponentPad*
%ADD18C,1.400000*%
G04 #@! TD*
G04 #@! TA.AperFunction,ViaPad*
%ADD19C,0.600000*%
G04 #@! TD*
G04 #@! TA.AperFunction,Conductor*
%ADD20C,0.500000*%
G04 #@! TD*
G04 #@! TA.AperFunction,Conductor*
%ADD21C,0.250000*%
G04 #@! TD*
G04 APERTURE END LIST*
D10*
X15500000Y-24500000D02*
G75*
G03*
X12500000Y-27500000I0J-3000000D01*
G01*
X15500000Y-24500000D02*
X74500000Y-24500000D01*
X77500000Y-27500000D02*
G75*
G03*
X74500000Y-24500000I-3000000J0D01*
G01*
X74500000Y-54500000D02*
G75*
G03*
X77500000Y-51500000I0J3000000D01*
G01*
X12500000Y-51500000D02*
G75*
G03*
X15500000Y-54500000I3000000J0D01*
G01*
X12500000Y-27500000D02*
X12500000Y-51500000D01*
X15500000Y-54500000D02*
X74500000Y-54500000D01*
X77500000Y-27500000D02*
X77500000Y-51500000D01*
D11*
X20320000Y-39370000D03*
X38100000Y-46990000D03*
X22860000Y-39370000D03*
X35560000Y-46990000D03*
X25400000Y-39370000D03*
X33020000Y-46990000D03*
X27940000Y-39370000D03*
X30480000Y-46990000D03*
X30480000Y-39370000D03*
X27940000Y-46990000D03*
X33020000Y-39370000D03*
X25400000Y-46990000D03*
X35560000Y-39370000D03*
X22860000Y-46990000D03*
X38100000Y-39370000D03*
D12*
X20320000Y-46990000D03*
D13*
X69130000Y-26730000D03*
X69130000Y-29270000D03*
X66590000Y-26730000D03*
X66590000Y-29270000D03*
X64050000Y-26730000D03*
X64050000Y-29270000D03*
X61510000Y-26730000D03*
X61510000Y-29270000D03*
X58970000Y-26730000D03*
X58970000Y-29270000D03*
X56430000Y-26730000D03*
X56430000Y-29270000D03*
X53890000Y-26730000D03*
X53890000Y-29270000D03*
X51350000Y-26730000D03*
X51350000Y-29270000D03*
X48810000Y-26730000D03*
X48810000Y-29270000D03*
X46270000Y-26730000D03*
X46270000Y-29270000D03*
X43730000Y-26730000D03*
X43730000Y-29270000D03*
X41190000Y-26730000D03*
X41190000Y-29270000D03*
X38650000Y-26730000D03*
X38650000Y-29270000D03*
X36110000Y-26730000D03*
X36110000Y-29270000D03*
X33570000Y-26730000D03*
X33570000Y-29270000D03*
X31030000Y-26730000D03*
X31030000Y-29270000D03*
X28490000Y-26730000D03*
X28490000Y-29270000D03*
X25950000Y-26730000D03*
X25950000Y-29270000D03*
X23410000Y-26730000D03*
X23410000Y-29270000D03*
X20870000Y-26730000D03*
D14*
X20870000Y-29270000D03*
D15*
X45720000Y-37084000D03*
D16*
X46990000Y-39624000D03*
X48260000Y-37084000D03*
X49530000Y-39624000D03*
X50800000Y-37084000D03*
X52070000Y-39624000D03*
D17*
X16510000Y-40640000D03*
D18*
X16510000Y-45720000D03*
D13*
X20929600Y-33934400D03*
X23469600Y-33934400D03*
X26009600Y-33934400D03*
X28549600Y-33934400D03*
X31089600Y-33934400D03*
X33629600Y-33934400D03*
D14*
X36169600Y-33934400D03*
D15*
X60345001Y-37084000D03*
D16*
X61615001Y-39624000D03*
X62885001Y-37084000D03*
X64155001Y-39624000D03*
X65425001Y-37084000D03*
X66695001Y-39624000D03*
D19*
X45974000Y-33528000D03*
X41402000Y-33528000D03*
D20*
X16510000Y-40640000D02*
X17780000Y-41910000D01*
X17780000Y-41910000D02*
X24130000Y-41910000D01*
X24130000Y-41910000D02*
X25400000Y-40640000D01*
X25400000Y-40640000D02*
X25400000Y-39370000D01*
X31089600Y-35585400D02*
X31089600Y-33934400D01*
X30480000Y-36195000D02*
X31089600Y-35585400D01*
X26670000Y-36195000D02*
X30480000Y-36195000D01*
X25400000Y-39370000D02*
X25400000Y-37465000D01*
X25400000Y-37465000D02*
X26670000Y-36195000D01*
X25400000Y-40640000D02*
X26670000Y-41910000D01*
X26670000Y-41910000D02*
X36830000Y-41910000D01*
X38100000Y-40640000D02*
X38100000Y-39370000D01*
X36830000Y-41910000D02*
X38100000Y-40640000D01*
X31089600Y-29329600D02*
X31030000Y-29270000D01*
X31089600Y-33934400D02*
X31089600Y-29329600D01*
X38100000Y-39370000D02*
X38100000Y-40386000D01*
X38100000Y-40386000D02*
X39624000Y-41910000D01*
X39624000Y-41910000D02*
X48768000Y-41910000D01*
X48768000Y-41910000D02*
X49530000Y-41148000D01*
X49530000Y-41148000D02*
X49530000Y-39624000D01*
X45974000Y-33528000D02*
X45974000Y-33528000D01*
X36576000Y-33528000D02*
X36169600Y-33934400D01*
X41402000Y-33528000D02*
X36576000Y-33528000D01*
X50038000Y-33528000D02*
X45974000Y-33528000D01*
X50800000Y-37084000D02*
X50800000Y-34290000D01*
X50800000Y-34290000D02*
X50038000Y-33528000D01*
D21*
X39878000Y-37592000D02*
X46270000Y-31200000D01*
X31750000Y-37592000D02*
X39878000Y-37592000D01*
X30480000Y-39370000D02*
X30480000Y-38862000D01*
X46270000Y-31200000D02*
X46270000Y-29270000D01*
X30480000Y-38862000D02*
X31750000Y-37592000D01*
X45860998Y-27940000D02*
X47480000Y-27940000D01*
X44958000Y-31750000D02*
X44958000Y-28842998D01*
X39624000Y-37084000D02*
X44958000Y-31750000D01*
X47480000Y-27940000D02*
X48810000Y-29270000D01*
X27940000Y-39370000D02*
X27940000Y-39116000D01*
X31242000Y-37338000D02*
X31496000Y-37084000D01*
X27940000Y-39116000D02*
X29718000Y-37338000D01*
X29718000Y-37338000D02*
X31242000Y-37338000D01*
X44958000Y-28842998D02*
X45860998Y-27940000D01*
X31496000Y-37084000D02*
X39624000Y-37084000D01*
D20*
X68580000Y-41402000D02*
X69130000Y-40852000D01*
X69130000Y-40852000D02*
X69130000Y-29270000D01*
X64643000Y-41402000D02*
X68580000Y-41402000D01*
X64155001Y-39624000D02*
X64155001Y-40914001D01*
X64155001Y-40914001D02*
X64643000Y-41402000D01*
M02*
