M48
; DRILL file {KiCad (5.1.6)-1} date 11/23/20 09:35:29
; FORMAT={-:-/ absolute / inch / decimal}
; #@! TF.CreationDate,2020-11-23T09:35:29-05:00
; #@! TF.GenerationSoftware,Kicad,Pcbnew,(5.1.6)-1
FMAT,2
INCH
T1C0.0157
T2C0.0276
T3C0.0299
T4C0.0315
T5C0.0394
T6C0.1083
T7C0.1280
%
G90
G05
T1
X1.63Y-1.32
X1.81Y-1.32
T2
X0.65Y-1.6
X0.65Y-1.8
T3
X2.3758Y-1.46
X2.4258Y-1.56
X2.4758Y-1.46
X2.5258Y-1.56
X2.5758Y-1.46
X2.6258Y-1.56
X1.8Y-1.46
X1.85Y-1.56
X1.9Y-1.46
X1.95Y-1.56
X2.0Y-1.46
X2.05Y-1.56
T4
X0.8Y-1.55
X0.8Y-1.85
X0.9Y-1.55
X0.9Y-1.85
X1.0Y-1.55
X1.0Y-1.85
X1.1Y-1.55
X1.1Y-1.85
X1.2Y-1.55
X1.2Y-1.85
X1.3Y-1.55
X1.3Y-1.85
X1.4Y-1.55
X1.4Y-1.85
X1.5Y-1.55
X1.5Y-1.85
T5
X0.8217Y-1.0524
X0.8217Y-1.1524
X0.9217Y-1.0524
X0.9217Y-1.1524
X1.0217Y-1.0524
X1.0217Y-1.1524
X1.1217Y-1.0524
X1.1217Y-1.1524
X1.2217Y-1.0524
X1.2217Y-1.1524
X1.3217Y-1.0524
X1.3217Y-1.1524
X1.4217Y-1.0524
X1.4217Y-1.1524
X1.5217Y-1.0524
X1.5217Y-1.1524
X1.6217Y-1.0524
X1.6217Y-1.1524
X1.7217Y-1.0524
X1.7217Y-1.1524
X1.8217Y-1.0524
X1.8217Y-1.1524
X1.9217Y-1.0524
X1.9217Y-1.1524
X2.0217Y-1.0524
X2.0217Y-1.1524
X2.1217Y-1.0524
X2.1217Y-1.1524
X2.2217Y-1.0524
X2.2217Y-1.1524
X2.3217Y-1.0524
X2.3217Y-1.1524
X2.4217Y-1.0524
X2.4217Y-1.1524
X2.5217Y-1.0524
X2.5217Y-1.1524
X2.6217Y-1.0524
X2.6217Y-1.1524
X2.7217Y-1.0524
X2.7217Y-1.1524
X0.824Y-1.336
X0.924Y-1.336
X1.024Y-1.336
X1.124Y-1.336
X1.224Y-1.336
X1.324Y-1.336
X1.424Y-1.336
T6
X2.9134Y-1.1024
X0.6299Y-1.1024
X2.9134Y-2.0079
X0.6299Y-2.0079
T7
X2.3006Y-1.81
X2.7006Y-1.81
X1.7248Y-1.81
X2.1248Y-1.81
T0
M30
